<svg id="Layer_1" data-name="Layer 1" xmlns="http://www.w3.org/2000/svg" viewBox="0 0 146 146"><defs><style>.cls-1{fill:#212b36;}.cls-2{fill:#00ab55;}</style></defs><title>04-Svg file</title>
<path class="cls-2" d="M143.25,123.81l-19.44,19.44a8,8,0,0,1-11.31,0L102.2,133a29.62,29.62,0,0,0-21-8.68H64.35A29.6,29.6,0,0,0,43.4,133l-10.3,10.3a8,8,0,0,1-11.32,0L2.34,123.81a8,8,0,0,1,0-11.31l10.31-10.3a29.71,29.71,0,0,0,6.82-10.64,8.48,8.48,0,0,1,8-5.49h0a8.48,8.48,0,0,1,8,5.49,29.71,29.71,0,0,0,6.82,10.64l1.16,1.16a29.68,29.68,0,0,0,21,8.68h16.9a29.66,29.66,0,0,0,21-8.68l10.3-10.3a8,8,0,0,1,11.31,0l19.44,19.44A8,8,0,0,1,143.25,123.81Z"/>
<path class="cls-2" d="M143.25,33.1,123.81,52.54a8,8,0,0,1-11.31,0l-10.3-10.3a29.65,29.65,0,0,0-21-8.69H64.35A29.61,29.61,0,0,0,43.4,42.24L42.23,43.4A29.62,29.62,0,0,0,35.41,54a8.48,8.48,0,0,1-8,5.49h0a8.48,8.48,0,0,1-8-5.49A29.62,29.62,0,0,0,12.65,43.4L2.34,33.1a8,8,0,0,1,0-11.32L21.78,2.35a8,8,0,0,1,11.32,0L43.4,12.64a29.6,29.6,0,0,0,20.95,8.68H81.24a29.64,29.64,0,0,0,21-8.68L112.5,2.35a8,8,0,0,1,11.31,0l19.44,19.43A8,8,0,0,1,143.25,33.1Z"/>
<path class="cls-2" d="M98.84,78.45,79.41,97.89a8,8,0,0,1-11.32,0l-10.3-10.3a29.68,29.68,0,0,0-20.95-8.68H16.44a6.11,6.11,0,0,1-6.11-6.11h0a6.12,6.12,0,0,1,6.11-6.12H36.83a29.64,29.64,0,0,0,21-8.68l10.3-10.3a8,8,0,0,1,11.32,0L98.84,67.14A8,8,0,0,1,98.84,78.45Z"/></svg>